<svg width="150" height="48" viewBox="0 0 150 48" fill="none" xmlns="http://www.w3.org/2000/svg">
<path d="M31.2106 13.5805H14.3611V18.8488H25.4336C26.1558 18.8488 26.6372 19.4342 26.6372 20.0196V29.2683H24.2301C23.508 29.2683 23.0265 28.683 23.0265 28.0976V21.4244H18.3327C15.9257 21.4244 14 23.2976 14 25.6391V30.322C14 32.6635 15.9257 34.5366 18.3327 34.5366H35.5434V17.7952C35.5434 15.4537 33.6177 13.5805 31.2106 13.5805ZM51.7911 29.2683H49.3841C48.6619 29.2683 48.1805 28.683 48.1805 28.0976V13.5805H43.4867C41.0796 13.5805 39.154 15.4537 39.154 17.7952V30.322C39.154 32.6635 41.0796 34.5366 43.4867 34.5366H60.6973V4.80005H51.6708L51.7911 29.2683ZM76.9451 29.2683H74.5381C73.8159 29.2683 73.3345 28.683 73.3345 28.0976V13.5805H64.308V30.322C64.308 32.6635 66.2336 34.5366 68.6407 34.5366H76.9451V37.1122H64.669V43.2001H81.6389C84.046 43.2001 85.9717 41.3269 85.9717 38.9854V13.5805H76.9451V29.2683ZM106.793 13.5805H89.462V30.322C89.462 32.6635 91.3876 34.5366 93.7947 34.5366H110.765V29.2683H99.692C98.9699 29.2683 98.4885 28.683 98.4885 28.0976V18.8488H100.896C101.618 18.8488 102.099 19.4342 102.099 20.0196V26.6927H106.793C109.2 26.6927 111.126 24.8196 111.126 22.4781V17.7952C111.126 15.4537 109.2 13.5805 106.793 13.5805ZM131.947 13.5805H114.736V34.5366H123.763V18.8488H126.17C126.892 18.8488 127.373 19.4342 127.373 20.0196V34.5366H136.4V17.7952C136.28 15.4537 134.354 13.5805 131.947 13.5805Z" fill="#607D8B"/>
</svg>
