<svg width="20" height="20" viewBox="0 0 20 20" fill="none" xmlns="http://www.w3.org/2000/svg">
<g clip-path="url(#clip0_249_754)">
<path d="M19.4899 7.82387L18.0317 7.53227C17.8713 7.00051 17.6587 6.48707 17.3968 5.99879L18.2215 4.76172C18.3764 4.5293 18.3458 4.21984 18.1483 4.02238L15.9386 1.81266C15.7411 1.61516 15.4316 1.58453 15.1993 1.73941L13.9621 2.56414C13.4739 2.30227 12.9604 2.08969 12.4286 1.92922L12.137 0.471016C12.0823 0.197148 11.8418 0 11.5625 0H8.4375C8.1582 0 7.9177 0.197148 7.86293 0.471016L7.57133 1.92922C7.03953 2.08969 6.52609 2.3023 6.03785 2.56414L4.8007 1.73941C4.56836 1.58453 4.25887 1.61516 4.06137 1.81266L1.85168 4.02238C1.65414 4.21988 1.62352 4.52934 1.77848 4.76172L2.6032 5.99879C2.34129 6.48707 2.12871 7.00051 1.96824 7.53227L0.510078 7.82387C0.236211 7.87863 0.0390625 8.11914 0.0390625 8.39844V11.5234C0.0390625 11.8027 0.236211 12.0432 0.510117 12.098L1.96828 12.3896C2.12871 12.9213 2.34133 13.4348 2.60324 13.923L1.77852 15.1602C1.62355 15.3925 1.65422 15.702 1.85172 15.8995L4.06141 18.1092C4.25895 18.3067 4.56836 18.3373 4.80074 18.1824L6.01254 17.3746V13.6963C5.09488 12.7195 4.53125 11.4072 4.53125 9.96094C4.53125 6.94063 6.97969 4.49219 10 4.49219C13.0203 4.49219 15.4688 6.94063 15.4688 9.96094C15.4688 11.4072 14.9051 12.7195 13.9875 13.6963V17.3746L15.1993 18.1824C15.2984 18.2485 15.4116 18.2809 15.5241 18.2809C15.6753 18.2809 15.8254 18.2225 15.9386 18.1092L18.1482 15.8995C18.3457 15.702 18.3764 15.3926 18.2214 15.1602L17.3967 13.9231C17.6586 13.4348 17.8712 12.9214 18.0317 12.3896L19.4898 12.098C19.7638 12.0432 19.9609 11.8027 19.9609 11.5234V8.39844C19.9609 8.11914 19.7638 7.87863 19.4899 7.82387Z" fill="white"/>
<path d="M11.8562 6.75047C11.5613 6.57965 11.1872 6.7609 11.1385 7.09816L10.7812 9.57035H9.21875L8.86156 7.09816C8.81281 6.7609 8.43871 6.57965 8.14383 6.75047C6.99973 7.41316 6.28906 8.6434 6.28906 9.96098C6.28906 11.3888 7.08867 12.6661 8.37582 13.2943L8.4375 13.3244V19.4141C8.4375 19.7377 8.69984 20 9.02344 20H10.9766C11.3002 20 11.5625 19.7377 11.5625 19.4141V13.3244L11.6242 13.2943C12.9113 12.6661 13.7109 11.3888 13.7109 9.96098C13.7109 8.6434 13.0003 7.41316 11.8562 6.75047Z" fill="white"/>
</g>
<defs>
<clipPath id="clip0_249_754">
<rect width="20" height="20" fill="white"/>
</clipPath>
</defs>
</svg>
