<svg width="12" height="12" viewBox="0 0 12 12" fill="none" xmlns="http://www.w3.org/2000/svg">
<g clip-path="url(#clip0_120_315)">
<path fill-rule="evenodd" clip-rule="evenodd" d="M5.44389 9.238L1.67189 4.716C1.5471 4.56576 1.48621 4.37258 1.50229 4.17794C1.51837 3.9833 1.61014 3.80272 1.75789 3.675C1.88861 3.56238 2.05534 3.5003 2.22789 3.5H9.77189C10.1739 3.5 10.4999 3.83 10.4999 4.239C10.5001 4.41322 10.4392 4.582 10.3279 4.716L6.55589 9.238C6.48824 9.31994 6.40332 9.38591 6.3072 9.4312C6.21108 9.47649 6.10614 9.49997 5.99989 9.49997C5.89363 9.49997 5.78869 9.47649 5.69257 9.4312C5.59645 9.38591 5.51153 9.31994 5.44389 9.238Z" fill="#78909C"/>
</g>
<defs>
<clipPath id="clip0_120_315">
<rect width="12" height="12" fill="white"/>
</clipPath>
</defs>
</svg>
