<svg width="20" height="20" viewBox="0 0 20 20" fill="none" xmlns="http://www.w3.org/2000/svg">
<g clip-path="url(#clip0_249_719)">
<path d="M17.6172 8.20312H7.07031C6.74672 8.20312 6.48438 7.94078 6.48438 7.61719V6.44531C6.48438 6.12172 6.74672 5.85938 7.07031 5.85938H17.6172C17.9408 5.85938 18.2031 6.12172 18.2031 6.44531V7.61719C18.2031 7.94078 17.9408 8.20312 17.6172 8.20312Z" fill="#90A4AE"/>
<path d="M14.9368 1.96128L13.3012 4.68745H7.80591C8.32935 2.67065 10.1653 1.17651 12.3438 1.17651C13.3016 1.17651 14.1938 1.46558 14.9368 1.96128Z" fill="#90A4AE"/>
<path d="M16.8817 4.6876H14.6676L15.8356 2.74072C16.327 3.28916 16.691 3.95361 16.8817 4.6876Z" fill="#90A4AE"/>
<path d="M19.375 0.585938C19.375 0.909375 19.1125 1.17188 18.7891 1.17188H16.777L15.8356 2.74063C15.5708 2.44453 15.2688 2.18203 14.9368 1.96133L15.943 0.284375C16.0489 0.107813 16.2395 0 16.4454 0H18.7891C19.1125 0 19.375 0.2625 19.375 0.585938Z" fill="#90A4AE"/>
<path d="M15.8594 11.8015C16.148 11.8015 16.4273 11.8535 16.6867 11.9511L16.1883 16.4691C14.7816 16.661 13.5156 15.5828 13.5156 14.1453C13.5156 12.8531 14.5672 11.8015 15.8594 11.8015Z" fill="#90A4AE"/>
<path d="M15.8578 10.6292C13.92 10.6292 12.3438 12.2058 12.3438 14.1432C12.3438 16.2033 14.0778 17.767 16.0558 17.6526L15.8543 19.4788C15.8216 19.7755 15.5709 20 15.2722 20H10.2716C10.5739 19.6646 10.814 19.2683 10.9709 18.8259C11.1615 18.289 11.0791 17.6901 10.7499 17.2246C10.7249 17.1895 10.6988 17.1552 10.6714 17.1223C10.9814 16.8053 11.1724 16.3723 11.1724 15.8952C11.1724 15.4297 10.9908 15.0061 10.6941 14.6914C10.7019 14.6828 10.7093 14.6738 10.7167 14.6648C11.0521 14.2545 11.1841 13.7215 11.0783 13.2018C10.7218 11.4542 9.40207 10.0919 7.7446 9.62645L7.71765 9.375H16.9686L16.816 10.7603C16.5095 10.6745 16.1878 10.6292 15.8578 10.6292Z" fill="#90A4AE"/>
<path d="M1.21055 16.4837C0.887148 16.4836 0.625 16.2215 0.625 15.8981C0.625 15.5747 0.887187 15.3125 1.21059 15.3125H9.41434C9.73773 15.3125 9.99992 15.5747 9.99992 15.8981C9.99992 16.2215 9.73777 16.4836 9.41438 16.4837C3.83633 16.4841 1.2066 16.4837 1.21055 16.4837Z" fill="#90A4AE"/>
<path d="M2.9687 20C1.95042 20 1.08175 19.3473 0.759091 18.4382C0.695419 18.2588 0.72288 18.0597 0.832684 17.9042C0.942528 17.7487 1.12104 17.6562 1.31143 17.6562H9.3135C9.50386 17.6562 9.68229 17.7487 9.79214 17.9042C9.90194 18.0596 9.92952 18.2588 9.86585 18.4382C9.54315 19.3473 8.67448 20 7.6562 20H2.9687Z" fill="#90A4AE"/>
<path d="M1.27038 14.1406C0.899053 14.1406 0.622022 13.7989 0.695616 13.4376C1.02226 11.8348 2.44284 10.625 4.14065 10.625H6.4844C8.18222 10.625 9.6028 11.8348 9.92941 13.4376C10.0034 13.8004 9.72581 14.1406 9.35464 14.1406H1.27038Z" fill="#90A4AE"/>
</g>
<defs>
<clipPath id="clip0_249_719">
<rect width="20" height="20" fill="white"/>
</clipPath>
</defs>
</svg>
