<svg width="147" height="35" viewBox="0 0 147 35" fill="none" xmlns="http://www.w3.org/2000/svg">
<g clip-path="url(#clip0_434_686)">
<path d="M33.1413 14.0805C33.1413 14.5521 32.9528 14.9796 32.6484 15.2899C32.3436 15.5993 31.9226 15.7903 31.4573 15.7903H23.0066L21.0252 29.5H17.658L19.6394 15.7903H2.43945L4.42083 12.3714H31.4573C32.3872 12.3714 33.1413 13.1363 33.1413 14.0805Z" fill="#B7DEFA"/>
<path d="M32.1501 22.6266V22.6286H32.1279C32.1353 22.6278 32.1427 22.6266 32.1501 22.6266Z" fill="#BDBDBD"/>
<path d="M16.2381 19.2097L14.2579 29.5H10.8907L12.2128 22.6286H4.15625L6.13646 19.2097H16.2381Z" fill="url(#paint0_linear_434_686)"/>
<path d="M39.8256 14.0805C39.8256 16.3725 38.9467 18.528 37.3502 20.1487C35.9383 21.5822 34.1151 22.4454 32.1501 22.6262C32.1427 22.6262 32.1353 22.627 32.1279 22.6282H29.1152L27.792 29.5H24.4247L26.4061 19.2093H32.1501C33.3956 19.0178 34.4972 18.3946 35.2875 17.4891C36.0771 16.5845 36.556 15.3976 36.556 14.0805C36.556 11.5287 34.7573 9.39494 32.3798 8.91893H0.755859L2.73646 5.5H31.3749C31.9751 5.5 32.5668 5.56355 33.1413 5.6867C34.7247 6.02693 36.1789 6.82384 37.3506 8.01348C38.9471 9.63453 39.826 11.7888 39.826 14.0809L39.8256 14.0805Z" fill="url(#paint1_linear_434_686)"/>
</g>
<path d="M54.4722 11.89H49.8262L50.2632 8.716H63.1432L62.7062 11.89H58.0602L56.2202 25H52.6322L54.4722 11.89ZM67.3592 23.597H67.3132C66.8532 24.195 66.2859 24.6243 65.6112 24.885C64.9365 25.1457 64.2465 25.276 63.5412 25.276C63.0199 25.276 62.5292 25.1993 62.0692 25.046C61.6092 24.908 61.2105 24.6933 60.8732 24.402C60.5512 24.1107 60.3135 23.7503 60.1602 23.321C60.0069 22.8917 59.9685 22.3933 60.0452 21.826C60.1832 20.86 60.5435 20.1163 61.1262 19.595C61.7242 19.0583 62.4219 18.6673 63.2192 18.422C64.0319 18.1613 64.8752 18.008 65.7492 17.962C66.6385 17.916 67.4435 17.893 68.1642 17.893C68.2409 17.2797 68.0875 16.7967 67.7042 16.444C67.3209 16.076 66.8302 15.892 66.2322 15.892C65.6649 15.892 65.1282 16.0147 64.6222 16.26C64.1315 16.49 63.6715 16.812 63.2422 17.226L61.6782 15.34C62.3989 14.742 63.2039 14.2973 64.0932 14.006C64.9979 13.6993 65.9102 13.546 66.8302 13.546C67.8422 13.546 68.6549 13.6763 69.2682 13.937C69.8969 14.1823 70.3722 14.5503 70.6942 15.041C71.0162 15.5317 71.2002 16.1373 71.2462 16.858C71.3075 17.5633 71.2692 18.3837 71.1312 19.319L70.3492 25H67.1752L67.3592 23.597ZM66.9912 20.101C66.7305 20.101 66.4009 20.1163 66.0022 20.147C65.6189 20.1623 65.2355 20.2237 64.8522 20.331C64.4842 20.4383 64.1545 20.5993 63.8632 20.814C63.5872 21.0287 63.4262 21.3277 63.3802 21.711C63.3495 21.9257 63.3725 22.1097 63.4492 22.263C63.5259 22.401 63.6332 22.5237 63.7712 22.631C63.9092 22.7383 64.0702 22.815 64.2542 22.861C64.4535 22.907 64.6452 22.93 64.8292 22.93C65.1665 22.93 65.4962 22.884 65.8182 22.792C66.1555 22.7 66.4545 22.5697 66.7152 22.401C66.9912 22.2323 67.2212 22.0177 67.4052 21.757C67.5892 21.4963 67.7042 21.1897 67.7502 20.837L67.8422 20.101H66.9912ZM74.5997 13.822H77.7737L77.5667 15.294H77.6127C77.7661 15.0947 77.9731 14.8953 78.2337 14.696C78.4944 14.4813 78.7781 14.2897 79.0847 14.121C79.4067 13.9523 79.7517 13.8143 80.1197 13.707C80.4877 13.5997 80.8711 13.546 81.2697 13.546C82.0977 13.546 82.8261 13.6917 83.4547 13.983C84.0987 14.259 84.6277 14.6577 85.0417 15.179C85.4557 15.685 85.7394 16.2907 85.8927 16.996C86.0614 17.7013 86.0844 18.4757 85.9617 19.319C85.8544 20.101 85.6321 20.8523 85.2947 21.573C84.9574 22.2783 84.5281 22.907 84.0067 23.459C83.5007 24.011 82.9104 24.4557 82.2357 24.793C81.5611 25.115 80.8251 25.276 80.0277 25.276C79.3071 25.276 78.6477 25.1687 78.0497 24.954C77.4517 24.724 76.9994 24.3407 76.6927 23.804H76.6467L75.7267 30.244H72.2767L74.5997 13.822ZM76.9917 19.411C76.8691 20.2543 77.0071 20.9367 77.4057 21.458C77.8197 21.9793 78.4637 22.24 79.3377 22.24C80.2117 22.24 80.9247 21.9793 81.4767 21.458C82.0441 20.9367 82.3891 20.2543 82.5117 19.411C82.6344 18.5677 82.4887 17.8853 82.0747 17.364C81.6607 16.8427 81.0167 16.582 80.1427 16.582C79.2687 16.582 78.5557 16.8427 78.0037 17.364C77.4517 17.8853 77.1144 18.5677 76.9917 19.411ZM96.187 16.582H93.151L92.622 20.308C92.576 20.6147 92.553 20.8983 92.553 21.159C92.553 21.4043 92.5914 21.619 92.668 21.803C92.76 21.987 92.9057 22.1327 93.105 22.24C93.3197 22.332 93.611 22.378 93.979 22.378C94.163 22.378 94.4007 22.3627 94.692 22.332C94.9987 22.286 95.2364 22.194 95.405 22.056L95.014 24.931C94.6154 25.069 94.2014 25.161 93.772 25.207C93.358 25.253 92.9517 25.276 92.553 25.276C91.9704 25.276 91.4414 25.2147 90.966 25.092C90.4907 24.9693 90.0844 24.7777 89.747 24.517C89.425 24.241 89.1874 23.8883 89.034 23.459C88.896 23.0297 88.8654 22.5083 88.942 21.895L89.701 16.582H87.493L87.884 13.822H90.092L90.552 10.51H94.002L93.542 13.822H96.578L96.187 16.582ZM104.166 23.597H104.12C103.66 24.195 103.093 24.6243 102.418 24.885C101.744 25.1457 101.054 25.276 100.348 25.276C99.8269 25.276 99.3362 25.1993 98.8762 25.046C98.4162 24.908 98.0176 24.6933 97.6802 24.402C97.3582 24.1107 97.1206 23.7503 96.9672 23.321C96.8139 22.8917 96.7756 22.3933 96.8522 21.826C96.9902 20.86 97.3506 20.1163 97.9332 19.595C98.5312 19.0583 99.2289 18.6673 100.026 18.422C100.839 18.1613 101.682 18.008 102.556 17.962C103.446 17.916 104.251 17.893 104.971 17.893C105.048 17.2797 104.895 16.7967 104.511 16.444C104.128 16.076 103.637 15.892 103.039 15.892C102.472 15.892 101.935 16.0147 101.429 16.26C100.939 16.49 100.479 16.812 100.049 17.226L98.4852 15.34C99.2059 14.742 100.011 14.2973 100.9 14.006C101.805 13.6993 102.717 13.546 103.637 13.546C104.649 13.546 105.462 13.6763 106.075 13.937C106.704 14.1823 107.179 14.5503 107.501 15.041C107.823 15.5317 108.007 16.1373 108.053 16.858C108.115 17.5633 108.076 18.3837 107.938 19.319L107.156 25H103.982L104.166 23.597ZM103.798 20.101C103.538 20.101 103.208 20.1163 102.809 20.147C102.426 20.1623 102.043 20.2237 101.659 20.331C101.291 20.4383 100.962 20.5993 100.67 20.814C100.394 21.0287 100.233 21.3277 100.187 21.711C100.157 21.9257 100.18 22.1097 100.256 22.263C100.333 22.401 100.44 22.5237 100.578 22.631C100.716 22.7383 100.877 22.815 101.061 22.861C101.261 22.907 101.452 22.93 101.636 22.93C101.974 22.93 102.303 22.884 102.625 22.792C102.963 22.7 103.262 22.5697 103.522 22.401C103.798 22.2323 104.028 22.0177 104.212 21.757C104.396 21.4963 104.511 21.1897 104.557 20.837L104.649 20.101H103.798Z" fill="#37474F"/>
<path d="M111.93 14.236H113.724L113.517 15.8H113.563C114.146 15.2173 114.782 14.765 115.472 14.443C116.162 14.121 116.898 13.96 117.68 13.96C118.524 13.96 119.267 14.1057 119.911 14.397C120.571 14.673 121.115 15.064 121.544 15.57C121.974 16.076 122.273 16.674 122.441 17.364C122.61 18.054 122.641 18.8053 122.533 19.618C122.426 20.4307 122.181 21.182 121.797 21.872C121.429 22.562 120.969 23.16 120.417 23.666C119.865 24.172 119.237 24.5707 118.531 24.862C117.841 25.138 117.121 25.276 116.369 25.276C115.403 25.276 114.583 25.069 113.908 24.655C113.249 24.2257 112.789 23.7043 112.528 23.091H112.482L111.47 30.244H109.676L111.93 14.236ZM112.965 19.618C112.889 20.1853 112.904 20.7143 113.011 21.205C113.134 21.6803 113.333 22.102 113.609 22.47C113.901 22.8227 114.261 23.1063 114.69 23.321C115.135 23.5203 115.649 23.62 116.231 23.62C116.814 23.62 117.351 23.5203 117.841 23.321C118.347 23.1063 118.792 22.8227 119.175 22.47C119.559 22.102 119.873 21.6803 120.118 21.205C120.364 20.7143 120.525 20.1853 120.601 19.618C120.678 19.0507 120.663 18.5293 120.555 18.054C120.448 17.5633 120.249 17.1417 119.957 16.789C119.681 16.421 119.321 16.1373 118.876 15.938C118.447 15.7233 117.941 15.616 117.358 15.616C116.776 15.616 116.231 15.7233 115.725 15.938C115.235 16.1373 114.798 16.421 114.414 16.789C114.031 17.1417 113.709 17.5633 113.448 18.054C113.203 18.5293 113.042 19.0507 112.965 19.618ZM124.903 19.618C125.025 18.7747 125.278 18.008 125.662 17.318C126.045 16.628 126.528 16.0377 127.111 15.547C127.693 15.041 128.353 14.65 129.089 14.374C129.84 14.098 130.63 13.96 131.458 13.96C132.286 13.96 133.029 14.098 133.689 14.374C134.363 14.65 134.915 15.041 135.345 15.547C135.789 16.0377 136.104 16.628 136.288 17.318C136.487 18.008 136.525 18.7747 136.403 19.618C136.28 20.4613 136.027 21.228 135.644 21.918C135.26 22.608 134.777 23.206 134.195 23.712C133.627 24.2027 132.968 24.586 132.217 24.862C131.481 25.138 130.699 25.276 129.871 25.276C129.043 25.276 128.291 25.138 127.617 24.862C126.957 24.586 126.405 24.2027 125.961 23.712C125.531 23.206 125.217 22.608 125.018 21.918C124.818 21.228 124.78 20.4613 124.903 19.618ZM126.835 19.618C126.758 20.1853 126.773 20.7143 126.881 21.205C127.003 21.6803 127.203 22.102 127.479 22.47C127.77 22.8227 128.13 23.1063 128.56 23.321C129.004 23.5203 129.518 23.62 130.101 23.62C130.683 23.62 131.22 23.5203 131.711 23.321C132.217 23.1063 132.661 22.8227 133.045 22.47C133.428 22.102 133.742 21.6803 133.988 21.205C134.233 20.7143 134.394 20.1853 134.471 19.618C134.547 19.0507 134.532 18.5293 134.425 18.054C134.317 17.5633 134.118 17.1417 133.827 16.789C133.551 16.421 133.19 16.1373 132.746 15.938C132.316 15.7233 131.81 15.616 131.228 15.616C130.645 15.616 130.101 15.7233 129.595 15.938C129.104 16.1373 128.667 16.421 128.284 16.789C127.9 17.1417 127.578 17.5633 127.318 18.054C127.072 18.5293 126.911 19.0507 126.835 19.618ZM139.265 22.171C139.556 22.6157 139.894 22.9683 140.277 23.229C140.66 23.4897 141.174 23.62 141.818 23.62C142.094 23.62 142.378 23.5893 142.669 23.528C142.96 23.4667 143.229 23.367 143.474 23.229C143.719 23.091 143.926 22.9223 144.095 22.723C144.264 22.5083 144.371 22.2553 144.417 21.964C144.463 21.6727 144.432 21.435 144.325 21.251C144.218 21.067 144.064 20.9137 143.865 20.791C143.666 20.653 143.428 20.5457 143.152 20.469C142.891 20.3923 142.623 20.3233 142.347 20.262C141.856 20.1547 141.389 20.032 140.944 19.894C140.499 19.756 140.124 19.5797 139.817 19.365C139.51 19.135 139.28 18.8437 139.127 18.491C138.974 18.1383 138.935 17.686 139.012 17.134C139.073 16.6127 139.25 16.1527 139.541 15.754C139.832 15.3553 140.185 15.0257 140.599 14.765C141.013 14.5043 141.465 14.305 141.956 14.167C142.462 14.029 142.968 13.96 143.474 13.96C144.241 13.96 144.923 14.1133 145.521 14.42C146.134 14.7267 146.579 15.225 146.855 15.915L145.222 16.904C145.053 16.5207 144.793 16.214 144.44 15.984C144.103 15.7387 143.666 15.616 143.129 15.616C142.884 15.616 142.631 15.6467 142.37 15.708C142.109 15.7693 141.864 15.8613 141.634 15.984C141.419 16.1067 141.235 16.2677 141.082 16.467C140.929 16.651 140.837 16.8657 140.806 17.111C140.775 17.341 140.821 17.5403 140.944 17.709C141.067 17.8623 141.243 18.0003 141.473 18.123C141.703 18.2457 141.971 18.353 142.278 18.445C142.6 18.537 142.937 18.6137 143.29 18.675C143.75 18.767 144.179 18.8897 144.578 19.043C144.992 19.181 145.345 19.3727 145.636 19.618C145.927 19.8633 146.134 20.17 146.257 20.538C146.395 20.906 146.426 21.3583 146.349 21.895C146.272 22.5083 146.081 23.0297 145.774 23.459C145.467 23.8883 145.092 24.241 144.647 24.517C144.202 24.7777 143.712 24.9693 143.175 25.092C142.654 25.2147 142.125 25.276 141.588 25.276C140.668 25.276 139.894 25.138 139.265 24.862C138.636 24.5707 138.107 24.0417 137.678 23.275L139.265 22.171Z" fill="#37474F"/>
<defs>
<linearGradient id="paint0_linear_434_686" x1="7.57867" y1="27.0138" x2="29.8662" y2="5.0633" gradientUnits="userSpaceOnUse">
<stop stop-color="#FC00FF"/>
<stop offset="1" stop-color="#00DBDE"/>
</linearGradient>
<linearGradient id="paint1_linear_434_686" x1="6.82362" y1="26.2468" x2="29.1116" y2="4.29639" gradientUnits="userSpaceOnUse">
<stop stop-color="#FC00FF"/>
<stop offset="1" stop-color="#00DBDE"/>
</linearGradient>
<clipPath id="clip0_434_686">
<rect width="39.0698" height="24" fill="white" transform="translate(0.755859 5.5)"/>
</clipPath>
</defs>
</svg>
