<svg width="70" height="43" viewBox="0 0 70 43" fill="none" xmlns="http://www.w3.org/2000/svg">
<g clip-path="url(#clip0_68_129)">
<path d="M58.0233 15.3734C58.0233 16.2184 57.6855 16.9843 57.1401 17.5402C56.5941 18.0946 55.8398 18.4369 55.0061 18.4369H39.8653L36.3153 43H30.2824L33.8323 18.4369H3.01575L6.56572 12.3113H55.0061C56.6721 12.3113 58.0233 13.6818 58.0233 15.3734Z" fill="#B7DEFA"/>
<path d="M56.2487 30.6852V30.6887H56.209C56.2222 30.6873 56.2355 30.6852 56.2487 30.6852Z" fill="#BDBDBD"/>
<path d="M27.7395 24.5631L24.1916 43H18.1586L20.5274 30.6887H6.09277L9.64066 24.5631H27.7395Z" fill="url(#paint0_linear_68_129)"/>
<path d="M70 15.3734C70 19.4799 68.4253 23.3418 65.5648 26.2455C63.0352 28.814 59.7687 30.3606 56.248 30.6845C56.2347 30.6845 56.2215 30.6859 56.2083 30.688H50.8105L48.4397 43H42.4067L45.9567 24.5624H56.248C58.4795 24.2195 60.4533 23.1028 61.8693 21.4806C63.2838 19.8597 64.1419 17.7332 64.1419 15.3734C64.1419 10.8014 60.9193 6.97844 56.6596 6.12558H0L3.54858 0H54.8592C55.9345 0 56.9946 0.113856 58.024 0.334496C60.8608 0.944084 63.4663 2.37188 65.5655 4.50331C68.426 7.4077 70.0007 11.2675 70.0007 15.3741L70 15.3734Z" fill="url(#paint1_linear_68_129)"/>
</g>
<defs>
<linearGradient id="paint0_linear_68_129" x1="12.2246" y1="38.5455" x2="52.1565" y2="-0.782419" gradientUnits="userSpaceOnUse">
<stop stop-color="#FC00FF"/>
<stop offset="1" stop-color="#00DBDE"/>
</linearGradient>
<linearGradient id="paint1_linear_68_129" x1="10.8714" y1="37.1714" x2="50.804" y2="-2.15647" gradientUnits="userSpaceOnUse">
<stop stop-color="#FC00FF"/>
<stop offset="1" stop-color="#00DBDE"/>
</linearGradient>
<clipPath id="clip0_68_129">
<rect width="70" height="43" fill="white"/>
</clipPath>
</defs>
</svg>
