<svg width="149" height="48" viewBox="0 0 149 48" fill="none" xmlns="http://www.w3.org/2000/svg">
<g clip-path="url(#clip0_230_602)">
<path d="M103.681 47.3491V47.4725H103.796C103.818 47.4729 103.839 47.4674 103.858 47.4568C103.865 47.4515 103.871 47.4444 103.875 47.4361C103.879 47.4279 103.881 47.4188 103.881 47.4096C103.881 47.4006 103.879 47.3917 103.875 47.3836C103.871 47.3756 103.865 47.3687 103.858 47.3636C103.839 47.3525 103.818 47.347 103.796 47.3479H103.681V47.3491ZM103.797 47.2618C103.847 47.2588 103.895 47.273 103.935 47.3019C103.951 47.3151 103.964 47.3318 103.973 47.3508C103.981 47.3697 103.985 47.3904 103.984 47.4111C103.985 47.429 103.982 47.4468 103.975 47.4633C103.968 47.4799 103.958 47.4948 103.945 47.5071C103.914 47.5339 103.875 47.5501 103.835 47.553L103.989 47.7289H103.87L103.728 47.5543H103.682V47.7289H103.583V47.2621H103.799L103.797 47.2618ZM103.766 47.8899C103.818 47.8904 103.87 47.8799 103.918 47.8591C103.964 47.8392 104.006 47.8109 104.041 47.7755C104.077 47.7401 104.105 47.6982 104.125 47.6521C104.165 47.5543 104.165 47.4444 104.125 47.3467C104.105 47.3007 104.077 47.2589 104.041 47.2233C104.006 47.1879 103.964 47.1595 103.918 47.1397C103.87 47.12 103.818 47.1101 103.766 47.1107C103.714 47.1102 103.661 47.12 103.612 47.1397C103.565 47.1591 103.522 47.1875 103.486 47.2233C103.431 47.2793 103.394 47.35 103.38 47.4268C103.365 47.5036 103.373 47.583 103.404 47.6552C103.422 47.7015 103.45 47.7434 103.486 47.7785C103.522 47.8143 103.565 47.8427 103.612 47.8621C103.661 47.883 103.713 47.8935 103.766 47.893M103.766 46.9984C103.902 46.9983 104.032 47.0514 104.129 47.1465C104.175 47.1921 104.213 47.2465 104.238 47.3066C104.264 47.3682 104.278 47.4346 104.278 47.5017C104.278 47.5688 104.264 47.6351 104.238 47.6968C104.212 47.7565 104.175 47.8108 104.129 47.8569C104.082 47.9023 104.026 47.9388 103.966 47.9649C103.903 47.9917 103.835 48.0054 103.766 48.005C103.697 48.0055 103.628 47.9918 103.564 47.9649C103.503 47.9395 103.448 47.9028 103.4 47.8569C103.354 47.8091 103.318 47.753 103.293 47.6916C103.266 47.6299 103.253 47.5635 103.253 47.4964C103.253 47.4294 103.266 47.363 103.293 47.3013C103.318 47.2413 103.355 47.1868 103.402 47.1412C103.448 47.0945 103.504 47.0578 103.566 47.0333C103.63 47.0063 103.698 46.9926 103.768 46.9931M56.5314 45.1959C56.5314 44.3059 57.1144 43.5748 58.0674 43.5748C58.978 43.5748 59.5925 44.2745 59.5925 45.1959C59.5925 46.1174 58.978 46.817 58.0674 46.817C57.1144 46.817 56.5314 46.0859 56.5314 45.1959ZM60.6305 45.1959V42.6633H59.5296V43.2802C59.1804 42.8243 58.6507 42.5383 57.9304 42.5383C56.5114 42.5383 55.3977 43.6513 55.3977 45.1972C55.3977 46.743 56.5107 47.856 57.9304 47.856C58.6504 47.856 59.1804 47.5697 59.5296 47.1141V47.7289H60.6293V45.1959H60.6305ZM97.8312 45.1959C97.8312 44.3059 98.4142 43.5748 99.3674 43.5748C100.279 43.5748 100.893 44.2745 100.893 45.1959C100.893 46.1174 100.279 46.817 99.3674 46.817C98.4145 46.817 97.8312 46.0859 97.8312 45.1959ZM101.932 45.1959V40.6304H100.83V43.2802C100.48 42.8243 99.9508 42.5383 99.2304 42.5383C97.8114 42.5383 96.6978 43.6513 96.6978 45.1972C96.6978 46.743 97.8108 47.856 99.2304 47.856C99.9508 47.856 100.48 47.5697 100.83 47.1141V47.7289H101.932V45.1959ZM74.2951 43.5227C75.0046 43.5227 75.4603 43.9675 75.5766 44.7508H72.9495C73.067 44.0197 73.511 43.5227 74.2954 43.5227M74.3173 42.5356C72.8335 42.5356 71.7955 43.6153 71.7955 45.1944C71.7955 46.8044 72.8752 47.8532 74.3911 47.8532C75.1536 47.8532 75.852 47.6629 76.4665 47.1437L75.927 46.3278C75.5025 46.6671 74.9621 46.8574 74.454 46.8574C73.7445 46.8574 73.0985 46.5289 72.9396 45.6173H76.6991C76.7099 45.4803 76.721 45.3421 76.721 45.1941C76.7099 43.6156 75.7339 42.5353 74.3167 42.5353M87.6093 45.1941C87.6093 44.3041 88.1923 43.573 89.1452 43.573C90.0558 43.573 90.6703 44.2726 90.6703 45.1941C90.6703 46.1155 90.0558 46.8152 89.1452 46.8152C88.1923 46.8152 87.609 46.084 87.609 45.1941M91.7081 45.1941V42.6633H90.6077V43.2802C90.2573 42.8243 89.7288 42.5383 89.0085 42.5383C87.5895 42.5383 86.4759 43.6513 86.4759 45.1972C86.4759 46.743 87.5889 47.856 89.0085 47.856C89.7288 47.856 90.2573 47.5697 90.6077 47.1141V47.7289H91.7084V45.1959L91.7081 45.1941ZM81.3918 45.1941C81.3918 46.73 82.461 47.8529 84.0929 47.8529C84.8554 47.8529 85.3635 47.6832 85.9129 47.2492L85.3842 46.3592C84.9708 46.6563 84.5368 46.8152 84.0577 46.8152C83.1788 46.8044 82.5325 46.1689 82.5325 45.1941C82.5325 44.2193 83.1788 43.5841 84.0577 43.573C84.5355 43.573 84.9696 43.7319 85.3842 44.0289L85.9129 43.139C85.3626 42.7049 84.8545 42.5353 84.0929 42.5353C82.461 42.5353 81.3918 43.6578 81.3918 45.1941ZM95.5851 42.5353C94.9499 42.5353 94.5363 42.8323 94.2503 43.2772V42.6633H93.1592V47.7261H94.2614V44.8881C94.2614 44.0502 94.6214 43.5847 95.3411 43.5847C95.5768 43.5813 95.8108 43.6246 96.0296 43.7121L96.3689 42.6744C96.1252 42.5784 95.8075 42.5362 95.5845 42.5362M66.0737 43.0658C65.5441 42.7166 64.8142 42.5362 64.0091 42.5362C62.7264 42.5362 61.9006 43.151 61.9006 44.157C61.9006 44.9825 62.5154 45.4918 63.6475 45.6506L64.1676 45.7247C64.7713 45.8095 65.0564 45.9684 65.0564 46.2543C65.0564 46.6458 64.6553 46.8691 63.9023 46.8691C63.1397 46.8691 62.5894 46.6254 62.2183 46.3395L61.701 47.198C62.3047 47.6428 63.0673 47.8551 63.8931 47.8551C65.3553 47.8551 66.2027 47.1665 66.2027 46.2025C66.2027 45.3125 65.5357 44.847 64.4338 44.6882L63.915 44.6129C63.4384 44.5512 63.0565 44.4553 63.0565 44.1159C63.0565 43.7457 63.4165 43.523 64.0205 43.523C64.6667 43.523 65.2923 43.7667 65.599 43.9571L66.0756 43.0671L66.0737 43.0658ZM80.2797 42.5371C79.6445 42.5371 79.2309 42.8342 78.9461 43.279V42.6633H77.855V47.7261H78.956V44.8881C78.956 44.0502 79.316 43.5847 80.0357 43.5847C80.2714 43.5813 80.5054 43.6246 80.7242 43.7121L81.0636 42.6744C80.8199 42.5784 80.5021 42.5362 80.2791 42.5362M70.8845 42.6633H69.0842V41.1273H67.9712V42.6633H66.9443V43.6695H67.9712V45.9792C67.9712 47.1539 68.4271 47.8535 69.7296 47.8535C70.2074 47.8535 70.7577 47.7054 71.1069 47.462L70.7889 46.5193C70.4604 46.7097 70.1004 46.8056 69.8141 46.8056C69.2638 46.8056 69.0842 46.4663 69.0842 45.9582V43.6705H70.8845V42.6633ZM54.4242 47.7273V44.55C54.4242 43.3534 53.6616 42.5482 52.4323 42.5374C51.786 42.5266 51.1194 42.7277 50.6526 43.4382C50.3034 42.8767 49.7531 42.5374 48.9794 42.5374C48.4387 42.5374 47.9102 42.6963 47.4966 43.2892V42.6633H46.3947V47.7261H47.5052V44.9189C47.5052 44.04 47.9926 43.573 48.7453 43.573C49.4764 43.573 49.8463 44.0496 49.8463 44.9078V47.7255H50.9593V44.9183C50.9593 44.0394 51.4674 43.5724 52.1982 43.5724C52.9499 43.5724 53.3087 44.049 53.3087 44.9072V47.7249L54.4242 47.7273Z" fill="#546E7A"/>
<path d="M104.309 30.8859V30.1455H104.116L103.893 30.6536L103.671 30.1455H103.478V30.8859H103.615V30.3281L103.823 30.8094H103.965L104.174 30.3269V30.8859H104.309H104.309ZM103.086 30.8859V30.2723H103.332V30.1474H102.702V30.2723H102.949V30.8859H103.084H103.086Z" fill="#90A4AE"/>
<path d="M82.395 34.0612H65.7103V4.07666H82.3953L82.395 34.0612Z" fill="#78909C"/>
<path d="M66.7681 19.0695C66.7681 12.9872 69.616 7.56897 74.0508 4.07724C70.6939 1.43029 66.5419 -0.00629575 62.267 2.07408e-05C51.7363 2.07408e-05 43.2 8.5376 43.2 19.0695C43.2 29.6015 51.7363 38.139 62.267 38.139C66.542 38.1454 70.6941 36.7088 74.0511 34.0618C69.6166 30.5707 66.7681 25.1522 66.7681 19.0695Z" fill="#607D8B"/>
<path d="M104.904 19.0695C104.904 29.6015 96.3679 38.139 85.8372 38.139C81.5618 38.1453 77.4092 36.7088 74.0516 34.0618C78.4876 30.5701 81.3355 25.1522 81.3355 19.0695C81.3355 12.9869 78.4876 7.56897 74.0516 4.07724C77.4092 1.43037 81.5616 -0.00618503 85.8369 2.00173e-05C96.3676 2.00173e-05 104.904 8.5376 104.904 19.0695" fill="#90A4AE"/>
</g>
<defs>
<clipPath id="clip0_230_602">
<rect width="148.8" height="48" fill="white"/>
</clipPath>
</defs>
</svg>
