<svg width="150" height="48" viewBox="0 0 150 48" fill="none" xmlns="http://www.w3.org/2000/svg">
<path fill-rule="evenodd" clip-rule="evenodd" d="M9.28798 13.6335C9.28798 13.6335 14.1353 11.7251 19.7651 11.7251C25.3948 11.7251 27.9712 13.7671 27.7994 18.0419C27.6467 21.6678 25.3567 33.3663 25.3567 33.3663H19.3834C19.3834 33.3663 21.6162 21.4007 21.6162 19.3396C21.6162 17.2785 18.62 17.0877 18.0857 17.0877C17.5513 17.0877 15.9674 17.0877 14.5742 17.7747C14.2498 19.7404 11.788 33.2518 11.788 33.2518H5.8147L9.28798 13.6335Z" fill="#607D8B"/>
<path fill-rule="evenodd" clip-rule="evenodd" d="M40.9864 23.8243C40.9864 23.8243 37.7803 23.6335 36.9025 23.9579C36.0246 24.3014 34.7078 25.1029 34.7078 26.8778C34.7078 28.6526 36.559 29.7022 38.2574 29.7022C38.7345 29.7022 39.517 29.6831 39.9941 29.4159C40.3948 27.3548 40.9864 23.8243 40.9864 23.8243ZM30.9483 17.8701L31.6925 13.0801C31.6925 13.0801 35.5284 11.7251 39.1353 11.7251C42.7422 11.7251 47.8948 12.5075 47.8948 17.5075C47.8948 18.6907 45.662 31.4197 45.5093 32.5648C42.7994 33.538 39.746 33.748 38.0284 33.748C36.3109 33.748 28.7727 33.2136 28.7727 27.2022C28.7727 20.7327 36.1391 19.9121 41.578 20.5228C41.9788 19.3778 42.7994 16.6869 37.8567 16.6869C36.3681 16.6869 32.6467 17.2213 30.9483 17.8701Z" fill="#607D8B"/>
<path fill-rule="evenodd" clip-rule="evenodd" d="M83.5436 23.8243C83.5436 23.8243 80.3375 23.6335 79.4596 23.9579C78.5817 24.3014 77.2649 25.1029 77.2649 26.8778C77.2649 28.6526 79.1161 29.7022 80.8146 29.7022C81.2917 29.7022 82.0741 29.6831 82.5512 29.4159C82.952 27.3548 83.5436 23.8243 83.5436 23.8243ZM73.5054 17.8701L74.2497 13.0801C74.2497 13.0801 78.0856 11.7251 81.6924 11.7251C85.2993 11.7251 90.452 12.5075 90.452 17.5075C90.452 18.6907 88.2191 31.4197 88.0665 32.5648C85.3565 33.538 82.3031 33.748 80.5855 33.748C78.868 33.748 71.3298 33.2136 71.3298 27.2022C71.3298 20.7327 78.6962 19.9121 84.1352 20.5228C84.5359 19.3778 85.3565 16.6869 80.4138 16.6869C78.9252 16.6869 75.2039 17.2213 73.5054 17.8701Z" fill="#607D8B"/>
<path fill-rule="evenodd" clip-rule="evenodd" d="M57.1503 17.9659C57.1503 17.9659 58.1808 17.2025 60.3564 17.2025C62.551 17.2025 64.3449 18.5193 64.3449 21.1529C64.3449 23.7865 63.1617 28.7865 58.4861 28.7865C57.7609 28.7865 55.7381 28.3666 55.3564 28.0231C55.8144 25.0079 57.1503 17.9659 57.1503 17.9659ZM51.8449 13.5384C51.8449 13.5384 56.177 11.6873 60.5472 11.6873C61.9403 11.6873 70.28 11.7445 70.28 21.0384C70.28 23.9582 69.9556 33.5575 58.9632 33.5575C57.1884 33.5575 54.5739 32.7368 54.5739 32.7368L52.9327 42.0116H46.7495L51.8449 13.5384Z" fill="#607D8B"/>
<path fill-rule="evenodd" clip-rule="evenodd" d="M107.609 18.9579C107.609 18.9579 108.353 14.6068 108.525 13.8243C106.865 12.5839 104.441 11.7251 101.865 11.7251C99.2882 11.7251 92.8951 12.2594 92.8951 18.6907C92.8951 19.9694 93.0668 22.832 97.0936 24.4159C101.12 25.9808 101.826 25.6564 101.826 27.2594C101.826 28.8625 99.9371 29.0342 98.8684 29.0342C97.7997 29.0342 95.1088 28.6716 91.96 26.0953C91.7501 28.2518 91.2539 30.7136 91.1584 31.2289C92.5134 32.4693 94.918 33.6907 99.0019 33.6907C103.086 33.6907 107.914 31.8777 107.914 26.5533C107.914 24.7976 107.685 21.8778 100.662 19.9694C99.3836 19.6449 98.9065 18.8052 98.9065 18.1373C98.9065 17.4503 99.4409 16.5343 101.788 16.5343C104.136 16.5152 106.578 17.832 107.609 18.9579Z" fill="#607D8B"/>
<path fill-rule="evenodd" clip-rule="evenodd" d="M141.712 14.4158L131.024 14.4539L120.07 24.8738L130.757 24.8356L141.712 14.4158Z" fill="#78909C"/>
<path fill-rule="evenodd" clip-rule="evenodd" d="M132.628 6H121.845V18.2519L132.628 24.1107V6Z" fill="#607D8B"/>
<path fill-rule="evenodd" clip-rule="evenodd" d="M112.589 12.1643H123.448L141.196 33.233H130.662L112.589 12.1643Z" fill="#90A4AE"/>
<path fill-rule="evenodd" clip-rule="evenodd" d="M116.635 36.9544H127.227L132.627 23.0422L125.853 24.8361L119.994 28.5766L116.635 36.9544Z" fill="#78909C"/>
<path fill-rule="evenodd" clip-rule="evenodd" d="M132.628 23.0422L121.96 23.0613L111.177 33.3094H121.884L129.632 25.943L132.628 23.0422Z" fill="#607D8B"/>
<path d="M141.635 17.8127H142.208C142.322 17.8127 142.418 17.7936 142.494 17.7745C142.57 17.7554 142.609 17.7173 142.647 17.66C142.685 17.6028 142.704 17.5455 142.704 17.4883C142.704 17.3928 142.666 17.3165 142.609 17.2592C142.532 17.202 142.437 17.1638 142.284 17.1638H141.654V17.8127H141.635ZM141.368 18.9386V16.9348H142.246C142.418 16.9348 142.551 16.9539 142.647 16.9921C142.742 17.0302 142.819 17.0875 142.876 17.1829C142.933 17.2783 142.952 17.3737 142.952 17.4883C142.952 17.6218 142.914 17.7554 142.819 17.8508C142.723 17.9463 142.59 18.0035 142.399 18.0417C142.475 18.0799 142.513 18.0989 142.551 18.1371C142.628 18.2134 142.704 18.2898 142.761 18.4043L143.105 18.9386H142.78L142.513 18.5188C142.437 18.4043 142.38 18.3089 142.322 18.2516C142.265 18.1944 142.227 18.1371 142.189 18.118C142.151 18.0989 142.112 18.0799 142.074 18.0608C142.036 18.0608 141.998 18.0608 141.922 18.0608H141.616V18.9386H141.368Z" fill="#607D8B"/>
<path d="M142.074 16.3818C141.215 16.3818 140.509 17.0879 140.509 17.9467C140.509 18.8055 141.215 19.5116 142.074 19.5116C142.933 19.5116 143.639 18.8055 143.639 17.9467C143.639 17.0879 142.933 16.3818 142.074 16.3818Z" stroke="#607D8B" stroke-width="0.1144" stroke-miterlimit="10" stroke-linecap="round" stroke-linejoin="round"/>
</svg>
