<svg width="149" height="48" viewBox="0 0 149 48" fill="none" xmlns="http://www.w3.org/2000/svg">
<path d="M57.4216 14.7141H49.8072C49.5552 14.714 49.3113 14.8038 49.1196 14.9675C48.928 15.1313 48.801 15.358 48.7618 15.607L45.6822 35.1323C45.668 35.2229 45.6737 35.3155 45.6987 35.4038C45.7238 35.492 45.7677 35.5737 45.8273 35.6433C45.887 35.7129 45.9611 35.7688 46.0444 35.8071C46.1278 35.8453 46.2184 35.8651 46.3101 35.8649H49.9453C50.1975 35.8651 50.4415 35.775 50.6332 35.6111C50.8249 35.4472 50.9517 35.2201 50.9908 34.9709L51.8213 29.7046C51.8603 29.4556 51.987 29.2287 52.1785 29.0648C52.3699 28.9009 52.6136 28.8107 52.8657 28.8106H55.2761C60.2919 28.8106 63.1867 26.3834 63.9427 21.5736C64.2834 19.4693 63.9571 17.816 62.9718 16.6581C61.8896 15.3866 59.9701 14.7141 57.4216 14.7141ZM58.3001 21.8453C57.8837 24.5775 55.7961 24.5775 53.7775 24.5775H52.6285L53.4346 19.4749C53.4582 19.3256 53.5343 19.1897 53.6492 19.0915C53.7641 18.9933 53.9103 18.9394 54.0615 18.9394H54.5881C55.9631 18.9394 57.2602 18.9394 57.9304 19.7232C58.3301 20.1908 58.4526 20.8856 58.3001 21.8453ZM80.1824 21.7573H76.5361C76.385 21.7573 76.2388 21.8113 76.1239 21.9095C76.009 22.0076 75.9329 22.1436 75.9093 22.2929L75.7478 23.3127L75.4929 22.9431C74.7035 21.7974 72.9432 21.4144 71.1863 21.4144C67.157 21.4144 63.7155 24.4662 63.0453 28.7471C62.6968 30.8826 63.1923 32.9245 64.4036 34.3485C65.5148 35.6579 67.1047 36.2034 68.9963 36.2034C72.2429 36.2034 74.0432 34.1158 74.0432 34.1158L73.8807 35.129C73.8662 35.2196 73.8715 35.3122 73.8963 35.4006C73.9211 35.4889 73.9647 35.5708 74.0242 35.6406C74.0836 35.7105 74.1575 35.7666 74.2408 35.8051C74.3241 35.8437 74.4147 35.8637 74.5064 35.8638H77.7909C78.0431 35.8639 78.2871 35.7739 78.4788 35.61C78.6705 35.446 78.7973 35.219 78.8363 34.9698L80.807 22.4899C80.8215 22.3996 80.8162 22.3071 80.7915 22.219C80.7668 22.1308 80.7232 22.0491 80.6638 21.9794C80.6044 21.9098 80.5306 21.8538 80.4475 21.8155C80.3644 21.7772 80.2739 21.7573 80.1824 21.7573ZM75.0998 28.854C74.748 30.9371 73.0946 32.3355 70.9859 32.3355C69.9271 32.3355 69.0809 31.996 68.5376 31.3524C67.9987 30.7133 67.7938 29.8037 67.9653 28.7905C68.2938 26.7252 69.975 25.2812 72.0514 25.2812C73.0868 25.2812 73.9286 25.6252 74.483 26.2743C75.0386 26.9301 75.259 27.8453 75.0998 28.854ZM99.6019 21.7573H95.9378C95.765 21.7576 95.5949 21.8 95.4422 21.8809C95.2895 21.9619 95.1588 22.0788 95.0616 22.2216L90.0079 29.6657L87.8658 22.5122C87.8001 22.294 87.6658 22.1028 87.4829 21.9669C87.3001 21.8309 87.0783 21.7574 86.8504 21.7573H83.2497C83.1487 21.7571 83.049 21.7809 82.959 21.827C82.869 21.873 82.7914 21.9399 82.7324 22.022C82.6735 22.1041 82.6351 22.1991 82.6203 22.2991C82.6055 22.3991 82.6148 22.5012 82.6474 22.5968L86.6834 34.4409L82.889 39.7974C82.8216 39.8924 82.7816 40.0041 82.7734 40.1202C82.7652 40.2364 82.7892 40.3526 82.8427 40.4561C82.8961 40.5596 82.977 40.6464 83.0765 40.7069C83.176 40.7675 83.2903 40.7995 83.4067 40.7994H87.0664C87.2373 40.7997 87.4057 40.7585 87.5571 40.6793C87.7086 40.6002 87.8385 40.4856 87.936 40.3452L100.123 22.7538C100.189 22.6586 100.228 22.5472 100.235 22.4316C100.242 22.3159 100.218 22.2006 100.164 22.0979C100.11 21.9952 100.03 21.9092 99.9305 21.8492C99.8314 21.7892 99.7178 21.7574 99.6019 21.7573Z" fill="#607D8B"/>
<path d="M111.733 14.714H104.118C103.866 14.7141 103.622 14.8041 103.431 14.9678C103.239 15.1315 103.112 15.3581 103.073 15.6069L99.9936 35.1322C99.9793 35.2227 99.9848 35.3152 100.01 35.4033C100.034 35.4914 100.078 35.5731 100.138 35.6428C100.197 35.7124 100.271 35.7683 100.354 35.8066C100.437 35.845 100.528 35.8648 100.619 35.8648H104.527C104.704 35.8646 104.874 35.8014 105.008 35.6867C105.142 35.572 105.23 35.4133 105.258 35.2391L106.132 29.7045C106.171 29.4555 106.297 29.2286 106.489 29.0647C106.68 28.9008 106.924 28.8106 107.176 28.8105H109.585C114.602 28.8105 117.496 26.3833 118.253 21.5735C118.595 19.4692 118.266 17.8159 117.281 16.658C116.2 15.3865 114.282 14.714 111.733 14.714ZM112.612 21.8452C112.196 24.5774 110.109 24.5774 108.089 24.5774H106.941L107.748 19.4748C107.771 19.3255 107.847 19.1894 107.962 19.0912C108.077 18.993 108.223 18.9391 108.374 18.9393H108.901C110.275 18.9393 111.573 18.9393 112.243 19.7231C112.643 20.1907 112.764 20.8855 112.612 21.8452ZM134.493 21.7572H130.849C130.698 21.7568 130.551 21.8106 130.436 21.9089C130.322 22.0072 130.246 22.1434 130.223 22.2928L130.062 23.3126L129.805 22.943C129.016 21.7973 127.257 21.4143 125.5 21.4143C121.471 21.4143 118.03 24.4661 117.36 28.747C117.013 30.8825 117.506 32.9244 118.717 34.3484C119.831 35.6577 121.418 36.2033 123.31 36.2033C126.557 36.2033 128.357 34.1157 128.357 34.1157L128.194 35.1289C128.18 35.2197 128.185 35.3125 128.21 35.401C128.235 35.4895 128.279 35.5715 128.339 35.6414C128.398 35.7113 128.472 35.7673 128.556 35.8057C128.64 35.8441 128.73 35.8639 128.822 35.8637H132.106C132.358 35.8636 132.601 35.7734 132.793 35.6095C132.984 35.4456 133.111 35.2187 133.15 34.9697L135.122 22.4898C135.136 22.3992 135.13 22.3065 135.105 22.2183C135.08 22.1301 135.036 22.0484 134.976 21.9788C134.916 21.9092 134.842 21.8534 134.759 21.8151C134.675 21.7769 134.584 21.7571 134.493 21.7572ZM129.41 28.8539C129.061 30.937 127.405 32.3354 125.296 32.3354C124.24 32.3354 123.391 31.9958 122.848 31.3523C122.309 30.7132 122.106 29.8036 122.276 28.7904C122.606 26.7251 124.285 25.2811 126.362 25.2811C127.397 25.2811 128.239 25.6251 128.793 26.2742C129.351 26.93 129.572 27.8452 129.41 28.8539ZM138.792 15.2495L135.666 35.1322C135.652 35.2227 135.657 35.3152 135.682 35.4033C135.707 35.4914 135.751 35.5731 135.81 35.6428C135.87 35.7124 135.944 35.7683 136.027 35.8066C136.11 35.845 136.2 35.8648 136.292 35.8648H139.434C139.956 35.8648 140.399 35.4863 140.479 34.9708L143.561 15.4466C143.576 15.3561 143.57 15.2636 143.545 15.1754C143.52 15.0872 143.477 15.0054 143.417 14.9357C143.358 14.866 143.284 14.81 143.201 14.7715C143.118 14.7331 143.027 14.7131 142.935 14.7129H139.417C139.266 14.7134 139.12 14.7677 139.006 14.8661C138.891 14.9644 138.815 15.1003 138.792 15.2495Z" fill="#78909C"/>
<path d="M14.0611 39.6592L14.6434 35.9605L13.3463 35.9305H7.15259L11.4569 8.63823C11.4697 8.55484 11.5121 8.47883 11.5762 8.42406C11.6404 8.36929 11.7221 8.3394 11.8065 8.33985H22.25C25.717 8.33985 28.1097 9.06132 29.3589 10.4853C29.9445 11.1534 30.3175 11.8514 30.4979 12.6197C30.6872 13.4258 30.6905 14.3888 30.5057 15.5634L30.4923 15.6492V16.4018L31.078 16.7336C31.525 16.9601 31.9269 17.2665 32.2637 17.6377C32.7647 18.2088 33.0887 18.9347 33.2257 19.7954C33.3671 20.6805 33.3203 21.7338 33.0887 22.9262C32.8215 24.2979 32.3895 25.4925 31.8061 26.4701C31.2914 27.3458 30.5993 28.1043 29.7742 28.6968C28.9993 29.2468 28.0785 29.6644 27.0375 29.9316C26.0288 30.1943 24.8787 30.3268 23.6172 30.3268H22.8045C22.2233 30.3268 21.6588 30.5361 21.2157 30.9113C20.7732 31.2906 20.4796 31.8145 20.3873 32.3899L20.3261 32.7228L19.2973 39.2416L19.2505 39.481C19.2383 39.5567 19.2171 39.5946 19.186 39.6202C19.1558 39.6449 19.1181 39.6586 19.0791 39.6592H14.0611Z" fill="#607D8B"/>
<path d="M31.6325 15.7361C31.6013 15.9354 31.5657 16.1391 31.5256 16.3484C30.1483 23.4195 25.4365 25.8623 19.4187 25.8623H16.3547C15.6188 25.8623 14.9986 26.3967 14.8839 27.1226L13.3152 37.0717L12.871 39.8919C12.8533 40.0038 12.86 40.1182 12.8908 40.2272C12.9215 40.3362 12.9755 40.4372 13.049 40.5234C13.1226 40.6095 13.2139 40.6787 13.3168 40.7261C13.4196 40.7736 13.5315 40.7982 13.6448 40.7982H19.0791C19.7227 40.7982 20.2693 40.3306 20.3707 39.696L20.4241 39.4199L21.4473 32.9266L21.513 32.5704C21.6132 31.9335 22.161 31.4659 22.8045 31.4659H23.6173C28.8824 31.4659 33.0042 29.3282 34.2088 23.1423C34.7121 20.5581 34.4516 18.4004 33.12 16.8829C32.6979 16.4134 32.1938 16.0248 31.6325 15.7361Z" fill="#78909C"/>
<path d="M30.1916 15.1615C29.7519 15.0343 29.3045 14.935 28.8522 14.8642C27.9585 14.7269 27.0553 14.661 26.1512 14.6671H17.9656C17.6541 14.6669 17.3528 14.7781 17.1161 14.9807C16.8794 15.1832 16.7231 15.4638 16.6752 15.7716L14.9339 26.8007L14.8838 27.1225C14.938 26.7714 15.1162 26.4513 15.3859 26.2201C15.6557 25.989 15.9993 25.862 16.3546 25.8622H19.4186C25.4364 25.8622 30.1482 23.4183 31.5254 16.3483C31.5666 16.139 31.6012 15.9353 31.6323 15.736C31.2689 15.5454 30.8901 15.3856 30.5 15.2583C30.3977 15.2244 30.2949 15.1921 30.1916 15.1615Z" fill="#455A64"/>
<path d="M16.6753 15.7718C16.7228 15.4639 16.8791 15.1833 17.1159 14.9808C17.3527 14.7783 17.6542 14.6675 17.9657 14.6685H26.1513C27.1211 14.6685 28.0262 14.7319 28.8524 14.8656C29.4114 14.9534 29.9627 15.0848 30.5013 15.2586C30.9076 15.3933 31.2851 15.5525 31.6336 15.7362C32.0433 13.1231 31.6302 11.3439 30.2174 9.73288C28.6597 7.95927 25.8485 7.19995 22.2511 7.19995H11.8077C11.0728 7.19995 10.446 7.73437 10.3324 8.46141L5.98247 36.0342C5.96221 36.1622 5.96992 36.2931 6.00506 36.4179C6.04021 36.5426 6.10197 36.6583 6.18608 36.7569C6.27019 36.8555 6.37467 36.9347 6.49232 36.9891C6.60996 37.0434 6.738 37.0717 6.8676 37.0719H13.3152L14.934 26.801L16.6753 15.7718Z" fill="#607D8B"/>
</svg>
