<svg width="20" height="20" viewBox="0 0 20 20" fill="none" xmlns="http://www.w3.org/2000/svg">
<g clip-path="url(#clip0_249_711)">
<path d="M7.65625 20C8.51919 20 9.21875 19.3004 9.21875 18.4375C9.21875 17.5746 8.51919 16.875 7.65625 16.875C6.7933 16.875 6.09375 17.5746 6.09375 18.4375C6.09375 19.3004 6.7933 20 7.65625 20Z" fill="#90A4AE"/>
<path d="M15.4688 20C16.3317 20 17.0312 19.3004 17.0312 18.4375C17.0312 17.5746 16.3317 16.875 15.4688 16.875C14.6058 16.875 13.9062 17.5746 13.9062 18.4375C13.9062 19.3004 14.6058 20 15.4688 20Z" fill="#90A4AE"/>
<path d="M4.72656 15.4259C4.72656 14.8866 5.16379 14.4494 5.70313 14.4494H17.8123C18.0955 14.4494 18.3382 14.2469 18.3888 13.9682L19.9513 5.3745C20.0167 5.01481 19.7404 4.68375 19.3748 4.68375H5.41106L4.85934 1.64926C4.82063 1.43637 4.6677 1.26211 4.46164 1.1961L0.81969 0.0292234C0.51926 -0.0670266 0.186722 0.0810594 0.0764481 0.376645C-0.0413254 0.692231 0.129261 1.0386 0.44637 1.1402L3.76922 2.20481L5.78215 13.2775H5.70313C4.51656 13.2775 3.55469 14.2394 3.55469 15.4259C3.55469 16.4005 4.20371 17.2229 5.09297 17.4859C5.2491 17.0667 5.50528 16.6959 5.83235 16.4025H5.70313C5.16379 16.4025 4.72656 15.9653 4.72656 15.4259ZM15.806 11.4561L16.2321 7.54989C16.2672 7.22821 16.5565 6.99586 16.8782 7.03094C17.1998 7.06602 17.4322 7.35528 17.3971 7.67696L16.971 11.5832C16.9359 11.9049 16.6466 12.1372 16.325 12.1022C16.0032 12.0671 15.7709 11.7779 15.806 11.4561ZM13.1183 7.59211C13.13 7.26872 13.4017 7.0161 13.7251 7.02786H13.7252C14.0486 7.03961 14.3012 7.31129 14.2894 7.63469L14.1474 11.5409C14.1356 11.8643 13.8639 12.117 13.5405 12.1052H13.5405C13.2171 12.0934 12.9645 11.8218 12.9763 11.4984L13.1183 7.59211ZM10.5718 7.0279C10.8952 7.01614 11.1668 7.26875 11.1786 7.59215L11.3206 11.4984C11.3324 11.8218 11.0798 12.0935 10.7564 12.1053H10.7563C10.4329 12.117 10.1613 11.8644 10.1495 11.541L10.0075 7.63477C9.99574 7.31133 10.2484 7.03965 10.5718 7.0279ZM7.41871 7.03094C7.74039 6.99586 8.02965 7.22817 8.06473 7.54989L8.49086 11.4561C8.52594 11.7778 8.29363 12.0671 7.97192 12.1022C7.65024 12.1372 7.36098 11.9049 7.3259 11.5832L6.89977 7.67696C6.86469 7.35528 7.09703 7.06606 7.41871 7.03094Z" fill="#90A4AE"/>
<path d="M10.2503 17.5743H12.8748C13.0267 17.1189 13.295 16.7163 13.6448 16.4025H9.48022C9.83003 16.7163 10.0983 17.1189 10.2503 17.5743Z" fill="#90A4AE"/>
<path d="M19.3584 16.4025H17.2926C17.6424 16.7163 17.9107 17.1189 18.0626 17.5743H19.3749C19.708 17.5743 19.9761 17.2966 19.9602 16.9601C19.9454 16.6449 19.6739 16.4025 19.3584 16.4025Z" fill="#90A4AE"/>
</g>
<defs>
<clipPath id="clip0_249_711">
<rect width="20" height="20" fill="white"/>
</clipPath>
</defs>
</svg>
