<svg width="20" height="20" viewBox="0 0 20 20" fill="none" xmlns="http://www.w3.org/2000/svg">
<g clip-path="url(#clip0_249_727)">
<path d="M19.4413 9.48954C19.9481 8.99575 20.127 8.27103 19.9083 7.59853C19.6899 6.92575 19.1192 6.44462 18.419 6.34286L14.0952 5.71462C13.8757 5.68259 13.6861 5.54481 13.588 5.34606L11.6543 1.42778C11.3413 0.793603 10.7073 0.399658 9.99997 0.399658C9.29262 0.399658 8.65868 0.793603 8.34559 1.42778L6.41196 5.34603C6.31383 5.54485 6.12419 5.68263 5.90505 5.71458L1.58106 6.34282C0.880748 6.44462 0.310084 6.92575 0.0918414 7.59817C-0.127026 8.27103 0.0518414 8.99579 0.558521 9.48942L3.68735 12.5396C3.84606 12.6942 3.91848 12.917 3.8811 13.1352L3.14235 17.442C3.02297 18.1393 3.30419 18.8306 3.87626 19.2462C4.44844 19.6619 5.19297 19.7158 5.81938 19.3868L9.68665 17.3535C9.88282 17.2504 10.1171 17.2504 10.3131 17.3534L14.1806 19.3868C14.807 19.7158 15.5516 19.6619 16.1238 19.2462C16.6958 18.8306 16.977 18.1393 16.8577 17.442L16.1189 13.1354C16.0815 12.917 16.1539 12.6942 16.3127 12.5395L19.4413 9.48954Z" fill="#90A4AE"/>
</g>
<defs>
<clipPath id="clip0_249_727">
<rect width="20" height="20" fill="white"/>
</clipPath>
</defs>
</svg>
