<svg width="150" height="48" viewBox="0 0 150 48" fill="none" xmlns="http://www.w3.org/2000/svg">
<path d="M68.0195 39.4957H59.9561L64.9956 8.52436H73.0599L68.0195 39.4957ZM53.1726 8.52436L45.4853 29.8267L44.5756 25.2395L44.5765 25.2411L41.8632 11.313C41.8632 11.313 41.5352 8.52436 38.0382 8.52436H25.3295L25.1804 9.04878C25.1804 9.04878 29.0668 9.85736 33.615 12.5888L40.6205 39.4965H49.022L61.8508 8.52436H53.1726ZM116.596 39.4957H124L117.544 8.52353H111.062C108.069 8.52353 107.34 10.8316 107.34 10.8316L95.3142 39.4957H103.72L105.401 34.8952H115.651L116.596 39.4957ZM107.723 28.5401L111.96 16.9499L114.343 28.5401H107.723ZM95.9446 15.9723L97.0954 9.32134C97.0954 9.32134 93.5446 7.97095 89.843 7.97095C85.8415 7.97095 76.339 9.71984 76.339 18.224C76.339 26.2254 87.4918 26.3248 87.4918 30.5276C87.4918 34.7304 77.4881 33.9773 74.1866 31.327L72.9879 38.2812C72.9879 38.2812 76.5884 40.0301 82.0894 40.0301C87.592 40.0301 95.8933 37.181 95.8933 29.4265C95.8933 21.3739 84.6402 20.6241 84.6402 17.123C84.6411 13.6211 92.4941 14.0709 95.9446 15.9723Z" fill="#607D8B"/>
<path d="M44.5765 25.2402L41.8632 11.3121C41.8632 11.3121 41.5352 8.52344 38.0382 8.52344H25.3295L25.1804 9.04786C25.1804 9.04786 31.2887 10.3137 37.1476 15.0567C42.7497 19.5901 44.5765 25.2402 44.5765 25.2402Z" fill="#90A4AE"/>
</svg>
